<svg width="24" height="24" viewBox="0 0 24 24" fill="none" xmlns="http://www.w3.org/2000/svg">
<rect width="24" height="24" fill="#E5E5E5"/>
<g clip-path="url(#clip0_297035_1582)">
<rect width="1440" height="3202" transform="translate(-660 -3040)" fill="white"/>
<rect x="-660" y="-148" width="1440" height="310" fill="#2E2F42"/>
<path d="M32 12C32 17.5228 29.7614 22.5228 26.1421 26.1421C22.5228 29.7614 17.5228 32 12 32C6.47715 32 1.47715 29.7614 -2.14214 26.1421C-5.76142 22.5228 -8 17.5228 -8 12C-8 6.47715 -5.76142 1.47715 -2.14214 -2.14214C1.47715 -5.76142 6.47715 -8 12 -8C17.5228 -8 22.5228 -5.76142 26.1421 -2.14214C29.7614 1.47715 32 6.47715 32 12Z" fill="white" fill-opacity="0.1"/>
<g clip-path="url(#clip1_297035_1582)">
<path d="M15.997 3.985H18.188V0.169C17.81 0.117 16.51 0 14.996 0C11.837 0 9.67301 1.987 9.67301 5.639V9H6.18701V13.266H9.67301V24H13.947V13.267H17.292L17.823 9.001H13.946V6.062C13.947 4.829 14.279 3.985 15.997 3.985Z" fill="#F4F4FD"/>
</g>
</g>
<defs>
<clipPath id="clip0_297035_1582">
<rect width="1440" height="3202" fill="white" transform="translate(-660 -3040)"/>
</clipPath>
<clipPath id="clip1_297035_1582">
<rect width="24" height="24" fill="white"/>
</clipPath>
</defs>
</svg>
