<svg width="24" height="24" viewBox="0 0 24 24" fill="none" xmlns="http://www.w3.org/2000/svg">
<rect width="24" height="24" fill="#E5E5E5"/>
<g clip-path="url(#clip0_297035_1582)">
<rect width="1440" height="3202" transform="translate(-716 -3040)" fill="white"/>
<rect x="-716" y="-148" width="1440" height="310" fill="#2E2F42"/>
<path d="M32 12C32 17.5228 29.7614 22.5228 26.1421 26.1421C22.5228 29.7614 17.5228 32 12 32C6.47715 32 1.47715 29.7614 -2.14214 26.1421C-5.76142 22.5228 -8 17.5228 -8 12C-8 6.47715 -5.76142 1.47715 -2.14214 -2.14214C1.47715 -5.76142 6.47715 -8 12 -8C17.5228 -8 22.5228 -5.76142 26.1421 -2.14214C29.7614 1.47715 32 6.47715 32 12Z" fill="white" fill-opacity="0.1"/>
<g clip-path="url(#clip1_297035_1582)">
<path d="M23.9941 24.0001V23.9991H24.0001V15.1971C24.0001 10.8911 23.0731 7.5741 18.0391 7.5741C15.6191 7.5741 13.9951 8.9021 13.3321 10.1611H13.2621V7.9761H8.48907V23.9991H13.4591V16.0651C13.4591 13.9761 13.8551 11.9561 16.4421 11.9561C18.9911 11.9561 19.0291 14.3401 19.0291 16.1991V24.0001H23.9941Z" fill="#F4F4FD"/>
<path d="M0.396057 7.97693H5.37206V23.9999H0.396057V7.97693Z" fill="#F4F4FD"/>
<path d="M2.88206 0C1.29106 0 6.10352e-05 1.291 6.10352e-05 2.882C6.10352e-05 4.473 1.29106 5.791 2.88206 5.791C4.47306 5.791 5.76406 4.473 5.76406 2.882C5.76306 1.291 4.47206 0 2.88206 0V0Z" fill="#F4F4FD"/>
</g>
</g>
<defs>
<clipPath id="clip0_297035_1582">
<rect width="1440" height="3202" fill="white" transform="translate(-716 -3040)"/>
</clipPath>
<clipPath id="clip1_297035_1582">
<rect width="24" height="24" fill="white"/>
</clipPath>
</defs>
</svg>
